<?xml version="1.0" encoding="UTF-8"?>
<svg width="24px" height="24px" viewBox="0 0 24 24" version="1.1" xmlns="http://www.w3.org/2000/svg" xmlns:xlink="http://www.w3.org/1999/xlink">
    <!-- Generator: Sketch 46.2 (44496) - http://www.bohemiancoding.com/sketch -->
    <title>icon/activitiy-hubspot/event</title>
    <desc>Created with Sketch.</desc>
    <defs>
        <circle id="path-1" cx="12" cy="12" r="12"></circle>
    </defs>
    <g id="Symbols" stroke="none" stroke-width="1" fill="none" fill-rule="evenodd">
        <g id="icon/activitiy-hubspot/event">
            <g id="hubspot">
                <mask id="mask-2" fill="white">
                    <use xlink:href="#path-1"></use>
                </mask>
                <use id="Oval" fill="#D8D8D8" xlink:href="#path-1"></use>
                <g id="tint/event-hubspot" mask="url(#mask-2)" fill="#FF9B61">
                    <rect id="Rectangle-3" x="0" y="0" width="24" height="24"></rect>
                </g>
            </g>
            <path d="M7,17.0192308 L17,17.0192308 L17,18.3333333 L7,18.3333333 L7,17.0192308 Z M10.556701,9.00641026 C10.556701,9.36965994 10.699884,9.6794859 10.9862543,9.93589744 C11.2726246,10.192309 11.6134001,10.3205128 12.0085911,10.3205128 C12.403782,10.3205128 12.7416939,10.192309 13.0223368,9.93589744 C13.3029796,9.6794859 13.443299,9.36965994 13.443299,9.00641026 C13.443299,8.64316058 13.300116,8.32799279 13.0137457,8.06089744 C12.7273754,7.79380208 12.3894636,7.66025641 12,7.66025641 C11.6105364,7.66025641 11.2726246,7.79380208 10.9862543,8.06089744 C10.699884,8.32799279 10.556701,8.64316058 10.556701,9.00641026 Z M16.2955326,9.00641026 C16.2955326,9.56196859 16.1466223,10.197646 15.8487973,10.9134615 C15.5967914,11.5224389 15.2416976,12.1794837 14.7835052,12.8846154 C14.4169512,13.4401737 13.9931296,14.017091 13.5120275,14.6153846 C13.1683832,15.0427372 12.8132893,15.4540579 12.4467354,15.849359 L12,16.3301282 L11.5532646,15.849359 C11.1867107,15.4540579 10.8316168,15.0427372 10.4879725,14.6153846 C10.0068704,14.017091 9.5830488,13.4401737 9.21649485,12.8846154 C8.75830241,12.1794837 8.40320859,11.5224389 8.15120275,10.9134615 C7.85337766,10.197646 7.70446735,9.56196859 7.70446735,9.00641026 C7.70446735,8.2799109 7.89633256,7.60951162 8.28006873,6.99519231 C8.6638049,6.380873 9.18499098,5.89476675 9.84364261,5.53685897 C10.5022942,5.1789512 11.2210729,5 12,5 C12.7789271,5 13.4977058,5.1789512 14.1563574,5.53685897 C14.815009,5.89476675 15.3361951,6.380873 15.7199313,6.99519231 C16.1036674,7.60951162 16.2955326,8.2799109 16.2955326,9.00641026 Z" id="pin_drop---material" fill="#FFFFFF"></path>
        </g>
    </g>
</svg>