<?xml version="1.0" encoding="UTF-8"?>
<svg width="24px" height="24px" viewBox="0 0 24 24" version="1.1" xmlns="http://www.w3.org/2000/svg" xmlns:xlink="http://www.w3.org/1999/xlink">
    <!-- Generator: Sketch 46.2 (44496) - http://www.bohemiancoding.com/sketch -->
    <title>icon/activitiy-hubspot/webpage</title>
    <desc>Created with Sketch.</desc>
    <defs>
        <circle id="path-1" cx="12" cy="12" r="12"></circle>
    </defs>
    <g id="Symbols" stroke="none" stroke-width="1" fill="none" fill-rule="evenodd">
        <g id="icon/activitiy-hubspot/webpage">
            <g id="hubspot">
                <mask id="mask-2" fill="white">
                    <use xlink:href="#path-1"></use>
                </mask>
                <use id="Oval" fill="#D8D8D8" xlink:href="#path-1"></use>
                <g id="tint/event-hubspot" mask="url(#mask-2)" fill="#FF9B61">
                    <rect id="Rectangle-3" x="0" y="0" width="24" height="24"></rect>
                </g>
            </g>
            <path d="M7.324,8.176 L7.324,14 L16.676,14 L16.676,8.176 L7.324,8.176 Z M16.676,15.75 L19,15.75 L19,16.926 L5,16.926 L5,15.75 L7.324,15.75 L7.324,15.176 C7.00666508,15.176 6.73600112,15.0593345 6.512,14.826 C6.28799888,14.5926655 6.176,14.3173349 6.176,14 L6.176,8.176 C6.176,7.85866508 6.28799888,7.5833345 6.512,7.35 C6.73600112,7.1166655 7.00666508,7 7.324,7 L16.676,7 C16.9933349,7 17.2639989,7.1166655 17.488,7.35 C17.7120011,7.5833345 17.824,7.85866508 17.824,8.176 L17.824,14 C17.824,14.3173349 17.7120011,14.5926655 17.488,14.826 C17.2639989,15.0593345 16.9933349,15.176 16.676,15.176 L16.676,15.75 Z" id="laptop_windows---material" fill="#FFFFFF"></path>
        </g>
    </g>
</svg>