<?xml version="1.0" encoding="UTF-8"?>
<svg width="24px" height="24px" viewBox="0 0 24 24" version="1.1" xmlns="http://www.w3.org/2000/svg" xmlns:xlink="http://www.w3.org/1999/xlink">
    <!-- Generator: Sketch 46.2 (44496) - http://www.bohemiancoding.com/sketch -->
    <title>icon/activity-call</title>
    <desc>Created with Sketch.</desc>
    <defs>
        <circle id="path-1" cx="12" cy="12" r="12"></circle>
    </defs>
    <g id="Symbols" stroke="none" stroke-width="1" fill="none" fill-rule="evenodd">
        <g id="icon/activity-call">
            <g id="renewal-copy">
                <mask id="mask-2" fill="white">
                    <use xlink:href="#path-1"></use>
                </mask>
                <use id="Oval" fill="#D8D8D8" xlink:href="#path-1"></use>
                <g id="tint/deep-blue" mask="url(#mask-2)" fill="#579CFF">
                    <rect id="Rectangle-3" x="0" y="0" width="24" height="24"></rect>
                </g>
            </g>
            <path d="M8.4,11.184 C8.89066912,12.1226714 9.51466288,12.9706629 10.272,13.728 C11.0293371,14.4853371 11.8773286,15.1093309 12.816,15.6 L14.288,14.128 C14.3733338,14.0319995 14.4799994,13.9680002 14.608,13.936 C14.7360006,13.9039998 14.8586661,13.9146664 14.976,13.968 C15.6800035,14.2133346 16.469329,14.336 17.344,14.336 C17.5253342,14.336 17.6799994,14.3999994 17.808,14.528 C17.9360006,14.6560006 18,14.8106658 18,14.992 L18,17.344 C18,17.5253342 17.9360006,17.6799994 17.808,17.808 C17.6799994,17.9360006 17.5253342,18 17.344,18 C15.8079923,18 14.336007,17.7013363 12.928,17.104 C11.5733266,16.5279971 10.3733386,15.7173386 9.328,14.672 C8.28266144,13.6266614 7.47200288,12.4266734 6.896,11.072 C6.29866368,9.66399296 6,8.19200768 6,6.656 C6,6.47466576 6.06399936,6.32000064 6.192,6.192 C6.32000064,6.06399936 6.47466576,6 6.656,6 L9.008,6 C9.18933424,6 9.34399936,6.06399936 9.472,6.192 C9.60000064,6.32000064 9.664,6.47466576 9.664,6.656 C9.664,7.53067104 9.78666544,8.31999648 10.032,9.024 C10.0640002,9.14133392 10.0693334,9.26399936 10.048,9.392 C10.0266666,9.52000064 9.96800048,9.62666624 9.872,9.712 L8.4,11.184 Z" id="call---material" fill="#FFFFFF"></path>
        </g>
    </g>
</svg>