<?xml version="1.0" encoding="UTF-8"?>
<svg width="12px" height="12px" viewBox="0 0 12 12" version="1.1" xmlns="http://www.w3.org/2000/svg" xmlns:xlink="http://www.w3.org/1999/xlink">
    <!-- Generator: Sketch 46.2 (44496) - http://www.bohemiancoding.com/sketch -->
    <title>icon/liferay-waffle</title>
    <desc>Created with Sketch.</desc>
    <defs>
        <path d="M12,0.827586207 L12,11.1724138 C12,11.6275862 11.6275862,12 11.1724138,12 L0.827586207,12 C0.372413793,12 -7.10542736e-15,11.6275862 -7.10542736e-15,11.1724138 L-7.10542736e-15,0.827586207 C-7.10542736e-15,0.372413793 0.372413793,0 0.827586207,0 L11.1724138,0 C11.6275862,0 12,0.372413793 12,0.827586207 Z M1.24137931,1.24137931 L1.24137931,3.31034483 L3.31034483,3.31034483 L3.31034483,1.24137931 L1.24137931,1.24137931 Z M3.72413793,1.24137931 L3.72413793,3.31034483 L5.79310345,3.31034483 L5.79310345,1.24137931 L3.72413793,1.24137931 Z M1.24137931,3.72413793 L1.24137931,5.79310345 L3.31034483,5.79310345 L3.31034483,3.72413793 L1.24137931,3.72413793 Z M1.24137931,6.20689655 L1.24137931,8.27586207 L3.31034483,8.27586207 L3.31034483,6.20689655 L1.24137931,6.20689655 Z M3.72413793,3.72413793 L3.72413793,5.79310345 L5.79310345,5.79310345 L5.79310345,3.72413793 L3.72413793,3.72413793 Z M6.20689655,1.24137931 L6.20689655,3.31034483 L8.27586207,3.31034483 L8.27586207,1.24137931 L6.20689655,1.24137931 Z M10.7586207,10.7586207 L10.7586207,8.68965517 L8.68965517,8.68965517 L8.68965517,10.7586207 L10.7586207,10.7586207 Z M8.27586207,10.7586207 L8.27586207,8.68965517 L6.20689655,8.68965517 L6.20689655,10.7586207 L8.27586207,10.7586207 Z M10.7586207,8.27586207 L10.7586207,6.20689655 L8.68965517,6.20689655 L8.68965517,8.27586207 L10.7586207,8.27586207 Z M10.7586207,5.79310345 L10.7586207,3.72413793 L8.68965517,3.72413793 L8.68965517,5.79310345 L10.7586207,5.79310345 Z M8.27586207,8.27586207 L8.27586207,6.20689655 L6.20689655,6.20689655 L6.20689655,8.27586207 L8.27586207,8.27586207 Z M5.79310345,10.7586207 L5.79310345,8.68965517 L3.72413793,8.68965517 L3.72413793,10.7586207 L5.79310345,10.7586207 Z" id="path-1"></path>
    </defs>
    <g id="Symbols" stroke="none" stroke-width="1" fill="none" fill-rule="evenodd">
        <g id="icon/liferay-waffle">
            <mask id="mask-2" fill="white">
                <use xlink:href="#path-1"></use>
            </mask>
            <use id="Combined-Shape" fill="#579CFF" xlink:href="#path-1"></use>
            <g id="tint/deep-blue" mask="url(#mask-2)" fill="#579CFF">
                <rect id="Rectangle-3" x="0" y="0" width="12" height="12"></rect>
            </g>
        </g>
    </g>
</svg>